<?xml version="1.0" standalone="no"?>
<svg xmlns="http://www.w3.org/2000/svg" width="300" height="300"><defs><clipPath id="clip-path-dot-color"><path d="M 0 144v 12h 6a 6 6, 0, 0, 0, 0 -12" transform="rotate(180,6,150)"/><path d="M 0 168v 12h 12v -6a 6 6, 0, 0, 0, -6 -6" transform="rotate(-90,6,174)"/><rect x="0" y="180" width="12" height="12" transform="rotate(0,6,186)"/><path d="M 0 192v 12h 12v -6a 6 6, 0, 0, 0, -6 -6" transform="rotate(180,6,198)"/><path d="M 12 132v 12h 12v -6a 6 6, 0, 0, 0, -6 -6" transform="rotate(-90,18,138)"/><rect x="12" y="144" width="12" height="12" transform="rotate(0,18,150)"/><rect x="12" y="156" width="12" height="12" transform="rotate(0,18,162)"/><rect x="12" y="168" width="12" height="12" transform="rotate(0,18,174)"/><path d="M 12 192v 12h 6a 6 6, 0, 0, 0, 0 -12" transform="rotate(0,18,198)"/><path d="M 24 108v 12h 12v -6a 6 6, 0, 0, 0, -6 -6" transform="rotate(-90,30,114)"/><rect x="24" y="120" width="12" height="12" transform="rotate(0,30,126)"/><rect x="24" y="132" width="12" height="12" transform="rotate(0,30,138)"/><path d="M 24 144v 12h 12v -6a 6 6, 0, 0, 0, -6 -6" transform="rotate(90,30,150)"/><rect x="24" y="168" width="12" height="12" transform="rotate(0,30,174)"/><path d="M 36 96v 12h 6a 6 6, 0, 0, 0, 0 -12" transform="rotate(-90,42,102)"/><rect x="36" y="108" width="12" height="12" transform="rotate(0,42,114)"/><rect x="36" y="120" width="12" height="12" transform="rotate(0,42,126)"/><path d="M 36 132v 12h 12v -6a 6 6, 0, 0, 0, -6 -6" transform="rotate(90,42,138)"/><rect x="36" y="168" width="12" height="12" transform="rotate(0,42,174)"/><rect x="48" y="108" width="12" height="12" transform="rotate(0,54,114)"/><path d="M 48 120v 12h 12v -6a 6 6, 0, 0, 0, -6 -6" transform="rotate(90,54,126)"/><path d="M 48 156v 12h 6a 6 6, 0, 0, 0, 0 -12" transform="rotate(-90,54,162)"/><path d="M 48 168v 12h 12v -6a 6 6, 0, 0, 0, -6 -6" transform="rotate(90,54,174)"/><path d="M 60 96v 12h 12v -6a 6 6, 0, 0, 0, -6 -6" transform="rotate(-90,66,102)"/><path d="M 60 108v 12h 12v -6a 6 6, 0, 0, 0, -6 -6" transform="rotate(90,66,114)"/><circle cx="66" cy="138" r="6" transform="rotate(0,66,138)"/><rect x="72" y="96" width="12" height="12" transform="rotate(0,78,102)"/><path d="M 72 120v 12h 6a 6 6, 0, 0, 0, 0 -12" transform="rotate(180,78,126)"/><path d="M 72 144v 12h 6a 6 6, 0, 0, 0, 0 -12" transform="rotate(180,78,150)"/><path d="M 72 168v 12h 6a 6 6, 0, 0, 0, 0 -12" transform="rotate(180,78,174)"/><circle cx="78" cy="198" r="6" transform="rotate(0,78,198)"/><path d="M 84 96v 12h 12v -6a 6 6, 0, 0, 0, -6 -6" transform="rotate(0,90,102)"/><rect x="84" y="108" width="12" height="12" transform="rotate(0,90,114)"/><path d="M 84 120v 12h 12v -6a 6 6, 0, 0, 0, -6 -6" transform="rotate(90,90,126)"/><path d="M 84 144v 12h 6a 6 6, 0, 0, 0, 0 -12" transform="rotate(0,90,150)"/><rect x="84" y="168" width="12" height="12" transform="rotate(0,90,174)"/><path d="M 84 180v 12h 12v -6a 6 6, 0, 0, 0, -6 -6" transform="rotate(180,90,186)"/><path d="M 96 12v 12h 12v -6a 6 6, 0, 0, 0, -6 -6" transform="rotate(-90,102,18)"/><path d="M 96 24v 12h 12v -6a 6 6, 0, 0, 0, -6 -6" transform="rotate(180,102,30)"/><circle cx="102" cy="78" r="6" transform="rotate(0,102,78)"/><rect x="96" y="108" width="12" height="12" transform="rotate(0,102,114)"/><circle cx="102" cy="138" r="6" transform="rotate(0,102,138)"/><path d="M 96 156v 12h 12v -6a 6 6, 0, 0, 0, -6 -6" transform="rotate(-90,102,162)"/><rect x="96" y="168" width="12" height="12" transform="rotate(0,102,174)"/><rect x="96" y="180" width="12" height="12" transform="rotate(0,102,186)"/><path d="M 96 216v 12h 12v -6a 6 6, 0, 0, 0, -6 -6" transform="rotate(-90,102,222)"/><path d="M 96 228v 12h 12v -6a 6 6, 0, 0, 0, -6 -6" transform="rotate(180,102,234)"/><path d="M 96 252v 12h 6a 6 6, 0, 0, 0, 0 -12" transform="rotate(180,102,258)"/><rect x="108" y="12" width="12" height="12" transform="rotate(0,114,18)"/><rect x="108" y="24" width="12" height="12" transform="rotate(0,114,30)"/><path d="M 108 60v 12h 6a 6 6, 0, 0, 0, 0 -12" transform="rotate(180,114,66)"/><path d="M 108 84v 12h 12v -6a 6 6, 0, 0, 0, -6 -6" transform="rotate(-90,114,90)"/><rect x="108" y="96" width="12" height="12" transform="rotate(0,114,102)"/><rect x="108" y="108" width="12" height="12" transform="rotate(0,114,114)"/><path d="M 108 120v 12h 12v -6a 6 6, 0, 0, 0, -6 -6" transform="rotate(180,114,126)"/><path d="M 108 156v 12h 12v -6a 6 6, 0, 0, 0, -6 -6" transform="rotate(0,114,162)"/><rect x="108" y="168" width="12" height="12" transform="rotate(0,114,174)"/><rect x="108" y="180" width="12" height="12" transform="rotate(0,114,186)"/><rect x="108" y="192" width="12" height="12" transform="rotate(0,114,198)"/><rect x="108" y="204" width="12" height="12" transform="rotate(0,114,210)"/><rect x="108" y="216" width="12" height="12" transform="rotate(0,114,222)"/><rect x="108" y="228" width="12" height="12" transform="rotate(0,114,234)"/><path d="M 108 252v 12h 6a 6 6, 0, 0, 0, 0 -12" transform="rotate(0,114,258)"/><path d="M 108 276v 12h 6a 6 6, 0, 0, 0, 0 -12" transform="rotate(-90,114,282)"/><path d="M 108 288v 12h 12v -6a 6 6, 0, 0, 0, -6 -6" transform="rotate(180,114,294)"/><path d="M 120 0v 12h 12v -6a 6 6, 0, 0, 0, -6 -6" transform="rotate(-90,126,6)"/><rect x="120" y="12" width="12" height="12" transform="rotate(0,126,18)"/><rect x="120" y="24" width="12" height="12" transform="rotate(0,126,30)"/><rect x="120" y="36" width="12" height="12" transform="rotate(0,126,42)"/><rect x="120" y="48" width="12" height="12" transform="rotate(0,126,54)"/><rect x="120" y="60" width="12" height="12" transform="rotate(0,126,66)"/><rect x="120" y="72" width="12" height="12" transform="rotate(0,126,78)"/><rect x="120" y="84" width="12" height="12" transform="rotate(0,126,90)"/><rect x="120" y="120" width="12" height="12" transform="rotate(0,126,126)"/><path d="M 120 144v 12h 6a 6 6, 0, 0, 0, 0 -12" transform="rotate(180,126,150)"/><rect x="120" y="180" width="12" height="12" transform="rotate(0,126,186)"/><path d="M 120 204v 12h 12v -6a 6 6, 0, 0, 0, -6 -6" transform="rotate(0,126,210)"/><rect x="120" y="216" width="12" height="12" transform="rotate(0,126,222)"/><rect x="120" y="228" width="12" height="12" transform="rotate(0,126,234)"/><path d="M 120 240v 12h 6a 6 6, 0, 0, 0, 0 -12" transform="rotate(90,126,246)"/><rect x="120" y="288" width="12" height="12" transform="rotate(0,126,294)"/><path d="M 132 0v 12h 6a 6 6, 0, 0, 0, 0 -12" transform="rotate(0,138,6)"/><path d="M 132 36v 12h 6a 6 6, 0, 0, 0, 0 -12" transform="rotate(0,138,42)"/><rect x="132" y="60" width="12" height="12" transform="rotate(0,138,66)"/><rect x="132" y="84" width="12" height="12" transform="rotate(0,138,90)"/><path d="M 132 120v 12h 12v -6a 6 6, 0, 0, 0, -6 -6" transform="rotate(0,138,126)"/><rect x="132" y="132" width="12" height="12" transform="rotate(0,138,138)"/><rect x="132" y="144" width="12" height="12" transform="rotate(0,138,150)"/><path d="M 132 156v 12h 12v -6a 6 6, 0, 0, 0, -6 -6" transform="rotate(180,138,162)"/><path d="M 132 180v 12h 12v -6a 6 6, 0, 0, 0, -6 -6" transform="rotate(0,138,186)"/><path d="M 132 192v 12h 12v -6a 6 6, 0, 0, 0, -6 -6" transform="rotate(180,138,198)"/><rect x="132" y="216" width="12" height="12" transform="rotate(0,138,222)"/><path d="M 132 276v 12h 6a 6 6, 0, 0, 0, 0 -12" transform="rotate(-90,138,282)"/><rect x="132" y="288" width="12" height="12" transform="rotate(0,138,294)"/><rect x="144" y="60" width="12" height="12" transform="rotate(0,150,66)"/><rect x="144" y="72" width="12" height="12" transform="rotate(0,150,78)"/><rect x="144" y="84" width="12" height="12" transform="rotate(0,150,90)"/><rect x="144" y="96" width="12" height="12" transform="rotate(0,150,102)"/><path d="M 144 108v 12h 6a 6 6, 0, 0, 0, 0 -12" transform="rotate(90,150,114)"/><rect x="144" y="156" width="12" height="12" transform="rotate(0,150,162)"/><rect x="144" y="192" width="12" height="12" transform="rotate(0,150,198)"/><rect x="144" y="216" width="12" height="12" transform="rotate(0,150,222)"/><path d="M 144 252v 12h 6a 6 6, 0, 0, 0, 0 -12" transform="rotate(180,150,258)"/><rect x="144" y="288" width="12" height="12" transform="rotate(0,150,294)"/><path d="M 156 60v 12h 6a 6 6, 0, 0, 0, 0 -12" transform="rotate(0,162,66)"/><path d="M 156 84v 12h 12v -6a 6 6, 0, 0, 0, -6 -6" transform="rotate(0,162,90)"/><path d="M 156 96v 12h 12v -6a 6 6, 0, 0, 0, -6 -6" transform="rotate(90,162,102)"/><path d="M 156 132v 12h 12v -6a 6 6, 0, 0, 0, -6 -6" transform="rotate(-90,162,138)"/><rect x="156" y="144" width="12" height="12" transform="rotate(0,162,150)"/><rect x="156" y="156" width="12" height="12" transform="rotate(0,162,162)"/><path d="M 156 180v 12h 12v -6a 6 6, 0, 0, 0, -6 -6" transform="rotate(-90,162,186)"/><rect x="156" y="192" width="12" height="12" transform="rotate(0,162,198)"/><rect x="156" y="216" width="12" height="12" transform="rotate(0,162,222)"/><path d="M 156 228v 12h 12v -6a 6 6, 0, 0, 0, -6 -6" transform="rotate(180,162,234)"/><rect x="156" y="252" width="12" height="12" transform="rotate(0,162,258)"/><rect x="156" y="264" width="12" height="12" transform="rotate(0,162,270)"/><rect x="156" y="276" width="12" height="12" transform="rotate(0,162,282)"/><rect x="156" y="288" width="12" height="12" transform="rotate(0,162,294)"/><path d="M 168 0v 12h 6a 6 6, 0, 0, 0, 0 -12" transform="rotate(-90,174,6)"/><rect x="168" y="12" width="12" height="12" transform="rotate(0,174,18)"/><path d="M 168 24v 12h 6a 6 6, 0, 0, 0, 0 -12" transform="rotate(90,174,30)"/><circle cx="174" cy="78" r="6" transform="rotate(0,174,78)"/><path d="M 168 108v 12h 6a 6 6, 0, 0, 0, 0 -12" transform="rotate(180,174,114)"/><rect x="168" y="132" width="12" height="12" transform="rotate(0,174,138)"/><rect x="168" y="156" width="12" height="12" transform="rotate(0,174,162)"/><rect x="168" y="180" width="12" height="12" transform="rotate(0,174,186)"/><rect x="168" y="192" width="12" height="12" transform="rotate(0,174,198)"/><path d="M 168 216v 12h 12v -6a 6 6, 0, 0, 0, -6 -6" transform="rotate(0,174,222)"/><rect x="168" y="228" width="12" height="12" transform="rotate(0,174,234)"/><rect x="168" y="240" width="12" height="12" transform="rotate(0,174,246)"/><rect x="168" y="252" width="12" height="12" transform="rotate(0,174,258)"/><rect x="168" y="288" width="12" height="12" transform="rotate(0,174,294)"/><circle cx="186" cy="54" r="6" transform="rotate(0,186,54)"/><path d="M 180 108v 12h 12v -6a 6 6, 0, 0, 0, -6 -6" transform="rotate(0,186,114)"/><rect x="180" y="120" width="12" height="12" transform="rotate(0,186,126)"/><rect x="180" y="132" width="12" height="12" transform="rotate(0,186,138)"/><rect x="180" y="144" width="12" height="12" transform="rotate(0,186,150)"/><rect x="180" y="156" width="12" height="12" transform="rotate(0,186,162)"/><rect x="180" y="168" width="12" height="12" transform="rotate(0,186,174)"/><rect x="180" y="180" width="12" height="12" transform="rotate(0,186,186)"/><rect x="180" y="192" width="12" height="12" transform="rotate(0,186,198)"/><path d="M 180 204v 12h 12v -6a 6 6, 0, 0, 0, -6 -6" transform="rotate(180,186,210)"/><rect x="180" y="240" width="12" height="12" transform="rotate(0,186,246)"/><path d="M 180 252v 12h 12v -6a 6 6, 0, 0, 0, -6 -6" transform="rotate(90,186,258)"/><path d="M 180 276v 12h 6a 6 6, 0, 0, 0, 0 -12" transform="rotate(-90,186,282)"/><rect x="180" y="288" width="12" height="12" transform="rotate(0,186,294)"/><path d="M 192 0v 12h 6a 6 6, 0, 0, 0, 0 -12" transform="rotate(-90,198,6)"/><path d="M 192 12v 12h 6a 6 6, 0, 0, 0, 0 -12" transform="rotate(90,198,18)"/><circle cx="198" cy="42" r="6" transform="rotate(0,198,42)"/><path d="M 192 60v 12h 6a 6 6, 0, 0, 0, 0 -12" transform="rotate(-90,198,66)"/><path d="M 192 72v 12h 6a 6 6, 0, 0, 0, 0 -12" transform="rotate(90,198,78)"/><path d="M 192 96v 12h 6a 6 6, 0, 0, 0, 0 -12" transform="rotate(180,198,102)"/><rect x="192" y="120" width="12" height="12" transform="rotate(0,198,126)"/><path d="M 192 156v 12h 6a 6 6, 0, 0, 0, 0 -12" transform="rotate(0,198,162)"/><rect x="192" y="192" width="12" height="12" transform="rotate(0,198,198)"/><rect x="192" y="204" width="12" height="12" transform="rotate(0,198,210)"/><rect x="192" y="216" width="12" height="12" transform="rotate(0,198,222)"/><rect x="192" y="228" width="12" height="12" transform="rotate(0,198,234)"/><rect x="192" y="240" width="12" height="12" transform="rotate(0,198,246)"/><rect x="192" y="288" width="12" height="12" transform="rotate(0,198,294)"/><path d="M 204 96v 12h 6a 6 6, 0, 0, 0, 0 -12" transform="rotate(0,210,102)"/><path d="M 204 120v 12h 12v -6a 6 6, 0, 0, 0, -6 -6" transform="rotate(0,210,126)"/><path d="M 204 132v 12h 12v -6a 6 6, 0, 0, 0, -6 -6" transform="rotate(180,210,138)"/><path d="M 204 168v 12h 6a 6 6, 0, 0, 0, 0 -12" transform="rotate(180,210,174)"/><rect x="204" y="192" width="12" height="12" transform="rotate(0,210,198)"/><rect x="204" y="240" width="12" height="12" transform="rotate(0,210,246)"/><path d="M 204 276v 12h 6a 6 6, 0, 0, 0, 0 -12" transform="rotate(-90,210,282)"/><rect x="204" y="288" width="12" height="12" transform="rotate(0,210,294)"/><path d="M 216 132v 12h 6a 6 6, 0, 0, 0, 0 -12" transform="rotate(0,222,138)"/><path d="M 216 168v 12h 6a 6 6, 0, 0, 0, 0 -12" transform="rotate(0,222,174)"/><rect x="216" y="192" width="12" height="12" transform="rotate(0,222,198)"/><circle cx="222" cy="222" r="6" transform="rotate(0,222,222)"/><rect x="216" y="240" width="12" height="12" transform="rotate(0,222,246)"/><circle cx="222" cy="270" r="6" transform="rotate(0,222,270)"/><path d="M 216 288v 12h 6a 6 6, 0, 0, 0, 0 -12" transform="rotate(0,222,294)"/><path d="M 228 108v 12h 6a 6 6, 0, 0, 0, 0 -12" transform="rotate(-90,234,114)"/><path d="M 228 120v 12h 12v -6a 6 6, 0, 0, 0, -6 -6" transform="rotate(180,234,126)"/><path d="M 228 144v 12h 6a 6 6, 0, 0, 0, 0 -12" transform="rotate(-90,234,150)"/><path d="M 228 156v 12h 6a 6 6, 0, 0, 0, 0 -12" transform="rotate(90,234,162)"/><rect x="228" y="192" width="12" height="12" transform="rotate(0,234,198)"/><rect x="228" y="240" width="12" height="12" transform="rotate(0,234,246)"/><path d="M 228 252v 12h 6a 6 6, 0, 0, 0, 0 -12" transform="rotate(90,234,258)"/><path d="M 228 276v 12h 6a 6 6, 0, 0, 0, 0 -12" transform="rotate(180,234,282)"/><path d="M 240 120v 12h 6a 6 6, 0, 0, 0, 0 -12" transform="rotate(0,246,126)"/><path d="M 240 168v 12h 6a 6 6, 0, 0, 0, 0 -12" transform="rotate(-90,246,174)"/><rect x="240" y="180" width="12" height="12" transform="rotate(0,246,186)"/><rect x="240" y="192" width="12" height="12" transform="rotate(0,246,198)"/><rect x="240" y="204" width="12" height="12" transform="rotate(0,246,210)"/><rect x="240" y="216" width="12" height="12" transform="rotate(0,246,222)"/><rect x="240" y="228" width="12" height="12" transform="rotate(0,246,234)"/><rect x="240" y="240" width="12" height="12" transform="rotate(0,246,246)"/><rect x="240" y="276" width="12" height="12" transform="rotate(0,246,282)"/><path d="M 240 288v 12h 6a 6 6, 0, 0, 0, 0 -12" transform="rotate(90,246,294)"/><circle cx="258" cy="114" r="6" transform="rotate(0,258,114)"/><path d="M 252 144v 12h 6a 6 6, 0, 0, 0, 0 -12" transform="rotate(180,258,150)"/><rect x="252" y="180" width="12" height="12" transform="rotate(0,258,186)"/><rect x="252" y="192" width="12" height="12" transform="rotate(0,258,198)"/><path d="M 252 204v 12h 12v -6a 6 6, 0, 0, 0, -6 -6" transform="rotate(90,258,210)"/><path d="M 252 228v 12h 12v -6a 6 6, 0, 0, 0, -6 -6" transform="rotate(0,258,234)"/><rect x="252" y="240" width="12" height="12" transform="rotate(0,258,246)"/><rect x="252" y="276" width="12" height="12" transform="rotate(0,258,282)"/><path d="M 264 96v 12h 6a 6 6, 0, 0, 0, 0 -12" transform="rotate(180,270,102)"/><circle cx="270" cy="126" r="6" transform="rotate(0,270,126)"/><path d="M 264 144v 12h 6a 6 6, 0, 0, 0, 0 -12" transform="rotate(0,270,150)"/><rect x="264" y="180" width="12" height="12" transform="rotate(0,270,186)"/><rect x="264" y="192" width="12" height="12" transform="rotate(0,270,198)"/><path d="M 264 240v 12h 12v -6a 6 6, 0, 0, 0, -6 -6" transform="rotate(0,270,246)"/><path d="M 264 252v 12h 12v -6a 6 6, 0, 0, 0, -6 -6" transform="rotate(180,270,258)"/><path d="M 264 276v 12h 12v -6a 6 6, 0, 0, 0, -6 -6" transform="rotate(0,270,282)"/><path d="M 264 288v 12h 6a 6 6, 0, 0, 0, 0 -12" transform="rotate(90,270,294)"/><path d="M 276 96v 12h 6a 6 6, 0, 0, 0, 0 -12" transform="rotate(0,282,102)"/><path d="M 276 180v 12h 12v -6a 6 6, 0, 0, 0, -6 -6" transform="rotate(0,282,186)"/><rect x="276" y="192" width="12" height="12" transform="rotate(0,282,198)"/><circle cx="282" cy="234" r="6" transform="rotate(0,282,234)"/><rect x="276" y="252" width="12" height="12" transform="rotate(0,282,258)"/><circle cx="294" cy="114" r="6" transform="rotate(0,294,114)"/><circle cx="294" cy="174" r="6" transform="rotate(0,294,174)"/><path d="M 288 192v 12h 6a 6 6, 0, 0, 0, 0 -12" transform="rotate(0,294,198)"/><path d="M 288 240v 12h 6a 6 6, 0, 0, 0, 0 -12" transform="rotate(-90,294,246)"/><path d="M 288 252v 12h 12v -6a 6 6, 0, 0, 0, -6 -6" transform="rotate(90,294,258)"/><circle cx="294" cy="294" r="6" transform="rotate(0,294,294)"/></clipPath><linearGradient id="dot-color" gradientUnits="userSpaceOnUse" x1="57" y1="0" x2="243" y2="300"><stop offset="0%" stop-color="#10b981"/><stop offset="100%" stop-color="#3b82f6"/></linearGradient><clipPath id="clip-path-corners-square-color-0-0"><path clip-rule="evenodd" d="M 0 30v 24a 30 30, 0, 0, 0, 30 30h 24a 30 30, 0, 0, 0, 30 -30v -24a 30 30, 0, 0, 0, -30 -30h -24a 30 30, 0, 0, 0, -30 30M 30 12h 24a 18 18, 0, 0, 1, 18 18v 24a 18 18, 0, 0, 1, -18 18h -24a 18 18, 0, 0, 1, -18 -18v -24a 18 18, 0, 0, 1, 18 -18" transform="rotate(0,42,42)"/></clipPath><clipPath id="clip-path-corners-dot-color-0-0"><circle cx="42" cy="42" r="18" transform="rotate(0,42,42)"/></clipPath><clipPath id="clip-path-corners-square-color-1-0"><path clip-rule="evenodd" d="M 216 30v 24a 30 30, 0, 0, 0, 30 30h 24a 30 30, 0, 0, 0, 30 -30v -24a 30 30, 0, 0, 0, -30 -30h -24a 30 30, 0, 0, 0, -30 30M 246 12h 24a 18 18, 0, 0, 1, 18 18v 24a 18 18, 0, 0, 1, -18 18h -24a 18 18, 0, 0, 1, -18 -18v -24a 18 18, 0, 0, 1, 18 -18" transform="rotate(90,258,42)"/></clipPath><clipPath id="clip-path-corners-dot-color-1-0"><circle cx="258" cy="42" r="18" transform="rotate(90,258,42)"/></clipPath><clipPath id="clip-path-corners-square-color-0-1"><path clip-rule="evenodd" d="M 0 246v 24a 30 30, 0, 0, 0, 30 30h 24a 30 30, 0, 0, 0, 30 -30v -24a 30 30, 0, 0, 0, -30 -30h -24a 30 30, 0, 0, 0, -30 30M 30 228h 24a 18 18, 0, 0, 1, 18 18v 24a 18 18, 0, 0, 1, -18 18h -24a 18 18, 0, 0, 1, -18 -18v -24a 18 18, 0, 0, 1, 18 -18" transform="rotate(-90,42,258)"/></clipPath><clipPath id="clip-path-corners-dot-color-0-1"><circle cx="42" cy="258" r="18" transform="rotate(-90,42,258)"/></clipPath></defs><rect x="0" y="0" height="300" width="300" clip-path="url('#clip-path-background-color')" fill="#ffffff"/><rect x="0" y="0" height="300" width="300" clip-path="url('#clip-path-dot-color')" fill="url('#dot-color')"/><rect x="0" y="0" height="84" width="84" clip-path="url('#clip-path-corners-square-color-0-0')" fill="#10b981"/><rect x="24" y="24" height="36" width="36" clip-path="url('#clip-path-corners-dot-color-0-0')" fill="#10b981"/><rect x="216" y="0" height="84" width="84" clip-path="url('#clip-path-corners-square-color-1-0')" fill="#10b981"/><rect x="240" y="24" height="36" width="36" clip-path="url('#clip-path-corners-dot-color-1-0')" fill="#10b981"/><rect x="0" y="216" height="84" width="84" clip-path="url('#clip-path-corners-square-color-0-1')" fill="#10b981"/><rect x="24" y="240" height="36" width="36" clip-path="url('#clip-path-corners-dot-color-0-1')" fill="#10b981"/></svg>